<svg xmlns="http://www.w3.org/2000/svg" xmlns:xlink="http://www.w3.org/1999/xlink" width="500" zoomAndPan="magnify" viewBox="0 0 375 374.999991" height="500" preserveAspectRatio="xMidYMid meet" version="1.0"><defs><clipPath id="b2c5ff972e"><path d="M 9 192 L 373 192 L 373 374.925781 L 9 374.925781 Z M 9 192 " clip-rule="nonzero"/></clipPath><clipPath id="c1785ecbb6"><path d="M 190 192 L 373 192 L 373 374.925781 L 190 374.925781 Z M 190 192 " clip-rule="nonzero"/></clipPath><clipPath id="15bf06fc63"><path d="M 178 209 L 203 209 L 203 374.925781 L 178 374.925781 Z M 178 209 " clip-rule="nonzero"/></clipPath><clipPath id="7e71231a56"><path d="M 190 209 L 203 209 L 203 374.925781 L 190 374.925781 Z M 190 209 " clip-rule="nonzero"/></clipPath><clipPath id="56c1972a43"><path d="M 48 6.675781 L 334 6.675781 L 334 199 L 48 199 Z M 48 6.675781 " clip-rule="nonzero"/></clipPath><clipPath id="5978a89626"><path d="M 190 6.675781 L 334 6.675781 L 334 199 L 190 199 Z M 190 6.675781 " clip-rule="nonzero"/></clipPath></defs><g clip-path="url(#b2c5ff972e)"><path fill="#ffbf42" d="M 360.71875 374.996094 L 20.914062 374.996094 C 12.875 374.996094 7.167969 367.148438 9.632812 359.503906 L 45.167969 249.300781 C 46.097656 246.425781 48.085938 244.015625 50.726562 242.558594 L 138.699219 194.035156 C 143.230469 191.535156 148.859375 192.265625 152.605469 195.839844 C 173.984375 216.238281 207.628906 216.257812 229.027344 195.839844 C 232.773438 192.265625 238.402344 191.535156 242.9375 194.035156 L 330.90625 242.558594 C 333.546875 244.015625 335.535156 246.425781 336.464844 249.300781 L 372 359.503906 C 374.460938 367.144531 368.761719 374.996094 360.71875 374.996094 Z M 360.71875 374.996094 " fill-opacity="1" fill-rule="nonzero"/></g><g clip-path="url(#c1785ecbb6)"><path fill="#ffbf42" d="M 372 359.503906 L 336.464844 249.300781 C 335.535156 246.425781 333.546875 244.015625 330.90625 242.558594 L 242.933594 194.035156 C 238.402344 191.535156 232.773438 192.265625 229.027344 195.839844 C 218.328125 206.046875 204.570312 211.148438 190.8125 211.148438 L 190.8125 374.996094 L 360.71875 374.996094 C 368.761719 374.996094 374.460938 367.140625 372 359.503906 Z M 372 359.503906 " fill-opacity="1" fill-rule="nonzero"/></g><g clip-path="url(#15bf06fc63)"><path fill="#ffffff" d="M 178.960938 209.851562 L 178.960938 374.996094 L 202.664062 374.996094 L 202.664062 209.851562 C 195.042969 211.511719 187.078125 211.621094 178.960938 209.851562 Z M 178.960938 209.851562 " fill-opacity="1" fill-rule="nonzero"/></g><g clip-path="url(#7e71231a56)"><path fill="#ffffff" d="M 202.664062 209.851562 C 198.792969 210.695312 194.835938 211.132812 190.8125 211.132812 L 190.8125 374.996094 L 202.664062 374.996094 Z M 202.664062 209.851562 " fill-opacity="1" fill-rule="nonzero"/></g><path fill="#ffffff" d="M 190.8125 234.847656 C 147.214844 234.847656 111.742188 199.371094 111.742188 155.769531 L 111.742188 117.359375 C 111.742188 73.757812 147.210938 38.285156 190.8125 38.285156 C 234.414062 38.285156 269.890625 73.757812 269.890625 117.359375 L 269.890625 155.769531 C 269.890625 199.371094 234.414062 234.847656 190.8125 234.847656 Z M 190.8125 234.847656 " fill-opacity="1" fill-rule="nonzero"/><path fill="#ffffff" d="M 190.8125 38.285156 L 190.8125 234.847656 C 234.414062 234.847656 269.890625 199.371094 269.890625 155.769531 L 269.890625 117.359375 C 269.890625 73.757812 234.414062 38.285156 190.8125 38.285156 Z M 190.8125 38.285156 " fill-opacity="1" fill-rule="nonzero"/><g clip-path="url(#56c1972a43)"><path fill="#ffbf42" d="M 302.179688 104.886719 L 300.792969 104.886719 C 294.574219 49.707031 247.628906 6.675781 190.8125 6.675781 C 134 6.675781 87.054688 49.707031 80.839844 104.886719 L 79.453125 104.886719 C 62.152344 104.886719 48.082031 118.960938 48.082031 136.257812 C 48.082031 153.550781 62.152344 167.625 79.453125 167.625 L 91.988281 167.625 C 98.535156 167.625 103.84375 162.320312 103.84375 155.769531 L 103.84375 117.359375 C 103.84375 69.398438 142.855469 30.382812 190.816406 30.382812 C 238.773438 30.382812 277.792969 69.398438 277.792969 117.359375 L 277.792969 151.835938 C 257.035156 178.207031 228.976562 174.949219 206.621094 174.949219 C 200.074219 174.949219 194.765625 180.257812 194.765625 186.800781 C 194.765625 193.347656 200.074219 198.65625 206.621094 198.65625 C 232.355469 198.65625 268.421875 201.109375 295.527344 167.625 L 302.183594 167.625 C 319.480469 167.625 333.550781 153.554688 333.550781 136.257812 C 333.550781 118.960938 319.480469 104.886719 302.179688 104.886719 Z M 302.179688 104.886719 " fill-opacity="1" fill-rule="nonzero"/></g><g clip-path="url(#5978a89626)"><path fill="#ffbf42" d="M 302.179688 104.886719 L 300.792969 104.886719 C 294.574219 49.707031 247.628906 6.675781 190.8125 6.675781 L 190.8125 30.382812 C 238.773438 30.382812 277.792969 69.398438 277.792969 117.359375 L 277.792969 151.835938 C 257.035156 178.207031 228.976562 174.949219 206.617188 174.949219 C 200.074219 174.949219 194.765625 180.257812 194.765625 186.804688 C 194.765625 193.347656 200.074219 198.65625 206.617188 198.65625 C 232.355469 198.65625 268.421875 201.109375 295.527344 167.625 L 302.183594 167.625 C 319.480469 167.625 333.550781 153.554688 333.550781 136.257812 C 333.550781 118.960938 319.480469 104.886719 302.179688 104.886719 Z M 302.179688 104.886719 " fill-opacity="1" fill-rule="nonzero"/></g></svg>